<?xml version="1.0" standalone="no"?>
<!DOCTYPE svg PUBLIC "-//W3C//DTD SVG 20010904//EN"
 "http://www.w3.org/TR/2001/REC-SVG-20010904/DTD/svg10.dtd">
<svg version="1.0" xmlns="http://www.w3.org/2000/svg"
 width="950.000000pt" height="646.000000pt" viewBox="0 0 950.000000 646.000000"
 preserveAspectRatio="xMidYMid meet">

<g transform="translate(0.000000,646.000000) scale(0.100000,-0.100000)"
fill="#000000" stroke="none">
<path d="M6640 5630 c0 -3 7 -27 16 -55 46 -150 -60 -320 -431 -690 -236 -236
-603 -595 -608 -595 -2 0 -7 236 -10 525 -5 442 -4 532 8 573 27 91 128 178
228 196 23 4 37 12 34 19 -4 13 -135 14 -689 6 -277 -4 -320 -11 -227 -34 114
-30 202 -88 247 -163 l27 -47 0 -1240 c0 -1172 -1 -1243 -18 -1287 -26 -68
-81 -113 -169 -138 -40 -12 -79 -24 -87 -26 -10 -3 -11 -8 -4 -15 8 -8 50 -8
150 1 166 15 505 15 697 1 134 -10 156 -9 156 8 0 9 -116 63 -175 81 -85 27
-134 59 -157 103 -21 40 -23 56 -26 292 -2 138 -1 418 3 624 l7 373 70 -68
c39 -38 212 -229 386 -424 173 -195 385 -425 471 -510 306 -304 571 -485 791
-541 118 -30 275 -24 375 15 83 33 52 31 633 34 375 2 462 4 462 15 0 9 -23
18 -62 25 -84 16 -180 64 -218 110 -17 20 -41 69 -53 107 l-22 70 0 1210 c0
970 3 1217 13 1247 25 70 108 122 245 152 34 8 31 32 -4 29 -13 -1 -89 -7
-169 -14 -141 -12 -520 -8 -684 8 -90 8 -87 -14 5 -37 127 -33 190 -79 217
-159 17 -48 17 -2367 1 -2443 -16 -74 -52 -142 -104 -193 -49 -49 -121 -90
-130 -75 -3 6 -23 10 -45 10 -128 0 -374 127 -610 315 -219 174 -611 567 -975
975 -76 85 -172 190 -214 233 l-76 77 106 108 c58 59 182 190 275 292 521 571
810 805 1068 869 105 26 95 38 -36 45 -146 8 -688 13 -688 6z"/>
<path d="M4565 5608 c-76 -13 -559 -16 -729 -5 -103 7 -127 6 -124 -4 2 -7 33
-20 69 -29 84 -22 162 -62 187 -97 11 -16 25 -46 31 -68 8 -28 11 -386 11
-1215 0 -1264 1 -1229 -51 -1331 -30 -59 -98 -123 -169 -159 -67 -34 -74 -55
-17 -54 20 0 244 1 497 2 374 2 460 4 460 15 0 9 -22 18 -60 25 -89 16 -176
59 -216 106 -21 25 -43 68 -57 111 l-22 70 0 1220 c0 1129 1 1222 17 1251 36
66 95 100 246 140 6 2 12 10 12 19 0 17 0 17 -85 3z"/>
<path d="M1326 5545 c-20 -14 -40 -25 -45 -25 -10 0 -95 -105 -154 -190 -193
-279 -307 -663 -307 -1038 0 -766 450 -1445 1074 -1618 50 -14 98 -28 106 -31
25 -9 96 -13 270 -16 162 -2 166 -3 230 -33 97 -46 181 -129 231 -227 l40 -82
-93 -6 c-153 -10 -251 -44 -363 -124 -269 -191 -352 -550 -198 -848 52 -102
182 -230 283 -279 100 -49 193 -70 310 -70 151 1 275 44 397 136 112 85 205
228 237 366 20 83 20 239 1 315 -39 153 -150 311 -278 394 -34 23 -65 42 -70
44 -4 1 -14 31 -21 67 -32 149 -109 286 -217 383 l-60 55 83 41 c269 135 523
404 669 707 247 513 245 1144 -6 1659 -91 187 -249 405 -313 432 -50 21 -101
4 -144 -46 -53 -62 -73 -130 -72 -241 1 -114 26 -188 80 -243 76 -75 154 -57
227 52 15 23 16 23 61 -66 291 -580 189 -1342 -241 -1794 -48 -49 -121 -116
-165 -149 -77 -59 -255 -153 -312 -166 -27 -6 -29 -5 -22 17 3 13 15 76 27
139 67 384 11 800 -151 1107 -66 127 -81 138 -185 138 -102 -1 -139 -23 -192
-117 -175 -307 -235 -773 -152 -1181 11 -55 18 -101 15 -104 -7 -7 -131 45
-199 84 -338 191 -573 534 -669 977 -19 87 -22 133 -22 326 0 197 2 238 22
330 37 168 118 386 178 479 l16 23 29 -51 c83 -145 231 -107 284 72 19 65 19
199 0 264 -28 93 -98 163 -163 163 -11 0 -36 -11 -56 -25z m947 -1612 c10 -18
34 -74 52 -125 98 -276 88 -649 -25 -913 l-19 -45 -55 0 -54 0 -26 63 c-33 80
-62 190 -77 296 -15 105 -7 350 15 448 28 130 89 286 119 305 23 15 51 3 70
-29z m558 -1849 c242 -72 392 -305 349 -545 -72 -401 -564 -544 -839 -243 -91
99 -126 201 -119 351 3 88 8 106 40 173 63 130 154 212 286 257 82 28 202 31
283 7z"/>
<path d="M2629 1887 c-173 -49 -256 -244 -171 -400 90 -167 304 -196 439 -62
106 107 110 262 8 383 -56 67 -186 104 -276 79z"/>
<path d="M3723 2115 c-123 -33 -221 -112 -243 -197 -28 -103 33 -209 233 -404
74 -72 152 -157 173 -189 35 -53 39 -64 39 -124 0 -75 -15 -103 -78 -144 -58
-38 -125 -51 -189 -37 -95 20 -147 74 -163 170 l-8 45 -13 -55 c-19 -81 -17
-137 6 -170 64 -90 280 -80 421 18 168 118 191 295 57 447 -17 20 -79 77 -137
127 -58 50 -121 107 -139 127 -39 42 -82 126 -82 160 0 80 62 160 141 181 91
25 170 -15 218 -110 35 -71 35 -70 49 68 l8 82 -35 10 c-51 14 -197 11 -258
-5z"/>
<path d="M8505 2116 c-155 -38 -255 -135 -255 -248 0 -87 46 -154 235 -348
194 -198 232 -255 223 -335 -7 -55 -27 -87 -79 -125 -54 -38 -130 -54 -195
-40 -96 22 -140 66 -159 160 l-12 55 -13 -55 c-20 -84 -18 -134 6 -167 89
-121 387 -66 509 94 46 60 58 102 53 183 -5 98 -46 159 -184 280 -209 182
-253 238 -254 324 0 50 33 120 70 146 15 11 51 25 78 32 43 9 58 9 96 -6 52
-20 111 -83 121 -127 12 -53 23 -39 35 45 16 111 12 129 -25 137 -51 11 -197
8 -250 -5z"/>
<path d="M5401 2043 c-32 -120 -27 -155 14 -91 42 66 61 73 226 76 l149 3 0
-491 c0 -331 -4 -498 -11 -511 -6 -11 -28 -28 -50 -37 -40 -17 -38 -17 153
-18 106 -1 181 2 166 6 -42 12 -84 46 -102 84 -14 30 -16 91 -16 500 l0 466
119 0 c159 0 212 -20 242 -92 6 -16 15 -25 20 -21 4 4 11 50 15 102 l7 94 -34
-8 c-19 -4 -186 -10 -371 -12 -305 -4 -420 2 -484 22 -20 6 -23 0 -43 -72z"/>
<path d="M6775 2103 c-17 -44 -84 -229 -176 -486 -210 -587 -216 -601 -317
-630 -45 -14 -38 -14 122 -14 135 1 163 3 137 12 -58 19 -59 33 -15 182 14 46
38 119 55 163 l31 80 163 0 163 0 37 -97 c21 -54 55 -142 76 -196 l38 -97 -45
-23 -45 -23 191 0 c104 -1 190 1 190 2 0 2 -21 9 -46 15 -26 7 -58 25 -76 43
-56 55 -208 396 -365 816 -52 140 -98 259 -103 263 -4 5 -11 0 -15 -10z m74
-419 c33 -111 61 -204 61 -208 0 -8 -265 -8 -273 0 -3 3 1 25 9 47 9 23 38
112 65 197 27 85 52 161 55 169 9 27 21 -3 83 -205z"/>
<path d="M4126 2098 c3 -4 12 -8 20 -8 7 0 32 -16 54 -36 l40 -36 0 -485 c0
-326 -4 -491 -11 -504 -6 -11 -29 -29 -52 -39 l-42 -19 195 0 c178 0 191 1
147 13 -27 8 -59 23 -70 35 -22 21 -22 25 -25 516 -3 555 -10 506 74 519 70
12 132 -11 190 -69 62 -62 85 -124 85 -225 0 -154 -82 -246 -229 -258 -81 -6
-61 -22 28 -22 121 0 224 72 282 197 56 119 49 264 -18 341 -50 59 -98 75
-239 78 -298 9 -433 9 -429 2z"/>
<path d="M907 2083 c20 -8 47 -23 60 -35 l23 -21 0 -493 c0 -552 4 -520 -75
-548 -37 -14 -26 -15 160 -15 l200 0 -50 17 c-35 12 -56 27 -72 51 -22 33 -23
41 -23 282 l0 249 320 0 320 0 0 -250 c0 -264 -7 -313 -47 -326 -62 -19 -42
-23 137 -23 182 0 192 1 155 15 -52 19 -83 49 -95 93 -6 21 -10 219 -10 487 0
507 -4 480 75 508 38 13 29 14 -143 18 -176 3 -230 -3 -158 -16 19 -4 46 -16
60 -27 l26 -20 0 -200 0 -199 -320 0 -320 0 0 196 0 196 29 29 c16 16 39 29
50 29 12 0 21 3 21 8 0 4 -81 7 -180 7 -160 0 -176 -1 -143 -12z"/>
<path d="M4920 2093 c0 -1 18 -7 39 -13 22 -6 49 -22 61 -37 20 -26 21 -33 18
-499 -3 -462 -3 -473 -24 -501 -11 -15 -36 -38 -54 -51 l-33 -22 194 1 194 0
-53 20 c-91 35 -87 11 -87 560 0 528 -4 498 68 528 36 15 32 16 -143 16 -99 0
-180 -1 -180 -2z"/>
<path d="M7488 2083 c29 -10 50 -26 63 -47 18 -29 19 -55 19 -486 0 -425 -2
-458 -19 -497 -12 -25 -32 -48 -50 -58 -17 -8 -31 -17 -31 -18 0 -1 148 -2
329 -2 l329 0 12 37 c6 21 13 68 16 105 5 67 5 68 -13 43 -42 -57 -64 -78
-115 -105 -45 -25 -64 -30 -123 -30 -82 1 -121 18 -162 72 l-28 36 -3 434 c-3
487 -5 475 70 512 l43 21 -190 -1 c-183 -1 -188 -1 -147 -16z"/>
</g>
</svg>
